<svg width="128" height="128" viewBox="0 0 128 128" fill="none" xmlns="http://www.w3.org/2000/svg">
<g clip-path="url(#clip0_112_119)">
<g filter="url(#filter0_d_112_119)">
<path d="M10.8626 12.8571C25.8764 12.8382 40.8903 12.8194 56.359 12.8C71.4175 12.8188 86.476 12.8377 101.991 12.8571C102.705 13.0986 103.42 13.3402 104.156 13.5891C104.432 13.7212 104.707 13.8533 104.991 13.9895C105.251 14.1593 105.512 14.3291 105.78 14.5041C106.093 14.772 106.405 15.0401 106.728 15.3163C107.152 15.7295 107.152 15.7295 107.585 16.1511C108.031 16.6947 108.031 16.6947 108.487 17.2492C108.643 17.5021 108.8 17.755 108.961 18.0156C109.102 18.3062 109.243 18.5968 109.389 18.8962C109.546 19.4114 109.546 19.4114 109.705 19.9371C109.78 20.2579 109.854 20.5787 109.931 20.9092C109.99 21.2716 110.05 21.6339 110.111 22.0073C110.117 26.8424 110.117 26.8424 110.122 31.7751C110.119 34.9532 110.115 38.1314 110.111 41.4057C113.327 41.3774 113.327 41.3774 116.607 41.3486C118.811 41.3675 121.014 41.3863 123.284 41.4057C123.999 41.8587 123.999 41.8587 124.728 42.3208C124.966 42.6831 125.204 43.0455 125.449 43.4188C125.569 43.7811 125.688 44.1435 125.81 44.5168C125.838 49.7992 125.838 49.7992 125.867 55.1882C125.848 58.7324 125.829 62.2766 125.81 65.9283C125.632 66.4718 125.453 67.0154 125.269 67.5754C124.873 67.9831 124.873 67.9831 124.468 68.3989C124.197 68.6102 123.925 68.8216 123.645 69.0394C123.407 69.0998 123.169 69.1602 122.923 69.2224C116.67 69.313 116.67 69.313 110.291 69.4054C110.009 75.3766 109.726 81.3477 109.434 87.5C109.658 93.5466 109.881 99.5932 110.111 105.823C109.992 106.488 109.873 107.152 109.75 107.836C109.624 108.203 109.497 108.569 109.367 108.946C109.11 109.484 109.11 109.484 108.848 110.032C108.625 110.349 108.401 110.666 108.171 110.993C107.918 111.28 107.665 111.567 107.404 111.862C107.151 112.119 106.898 112.376 106.637 112.64C106.355 112.867 106.072 113.093 105.78 113.326C105.438 113.526 105.095 113.726 104.743 113.933C104.371 114.095 103.998 114.257 103.615 114.424C102.841 114.606 102.067 114.787 101.269 114.973C97.3313 114.992 93.3936 115.011 89.3366 115.031C85.4733 115.012 81.6102 114.993 77.6298 114.973C77.4511 114.853 77.2725 114.732 77.0884 114.607C77.0698 114.151 77.0512 113.694 77.0321 113.224C77.0507 112.774 77.0693 112.325 77.0884 111.862C77.2075 111.802 77.3266 111.742 77.4493 111.679C79.0385 111.679 80.6278 111.679 82.2652 111.679C84.368 111.679 86.4708 111.679 88.6373 111.679C90.9449 111.661 93.2524 111.642 95.6298 111.622C97.5503 111.581 99.4707 111.539 101.449 111.496C102.045 111.315 102.64 111.134 103.254 110.947C103.537 110.789 103.82 110.63 104.111 110.467C104.364 110.263 104.617 110.059 104.878 109.849C105.075 109.593 105.272 109.336 105.476 109.072C105.636 108.785 105.796 108.498 105.961 108.202C106.098 107.893 106.236 107.583 106.378 107.264C106.478 106.97 106.579 106.676 106.682 106.372C106.742 105.95 106.802 105.527 106.863 105.091C106.867 99.6901 106.87 94.2887 106.874 88.7237C106.87 83.3754 106.867 78.0269 106.863 72.5165C106.446 72.9392 106.029 73.362 105.6 73.7975C105.153 74.2504 105.153 74.2504 104.697 74.7125C104.578 74.7125 104.459 74.7125 104.337 74.7125C104.337 74.8333 104.337 74.9541 104.337 75.0785C104.124 75.237 103.912 75.3957 103.694 75.5589C103.429 75.7628 103.165 75.9667 102.893 76.1766C102.685 76.4181 102.476 76.6597 102.261 76.9086C102.053 77.1501 101.845 77.3917 101.63 77.6406C101.388 77.8558 101.146 78.0708 100.897 78.2925C100.662 78.4398 100.428 78.5869 100.186 78.7386C99.8289 78.6782 99.4716 78.6178 99.1035 78.5556C98.8058 78.2537 98.508 77.9517 98.2012 77.6406C98.1733 75.5287 98.1733 75.5287 98.1449 73.3744C98.1635 72.0042 98.1821 70.6341 98.2012 69.2224C97.0103 69.2224 95.8193 69.2224 94.5922 69.2224C94.2349 69.0412 93.8776 68.86 93.5095 68.6734C93.3161 68.4772 93.1224 68.2808 92.923 68.0786C92.7592 67.8521 92.5955 67.6257 92.4268 67.3924C92.3077 66.9696 92.1886 66.5469 92.0659 66.1113C92.0435 62.5255 92.0213 58.9397 91.9982 55.2454C92.0206 51.6446 92.0428 48.0439 92.0659 44.3338C92.3041 43.7903 92.5423 43.2468 92.7877 42.6868C92.9961 42.4754 93.2045 42.264 93.4193 42.0463C93.6277 41.8953 93.8361 41.7443 94.0509 41.5887C94.289 41.5283 94.5272 41.468 94.7727 41.4057C96.8123 41.4019 98.8518 41.3982 100.953 41.3944C102.963 41.398 104.973 41.4019 107.043 41.4057C107.043 38.8693 107.043 36.3329 107.043 33.7196C73.5173 33.7196 39.9912 33.7196 5.4491 33.7196C5.47148 45.5826 5.49385 57.4459 5.51677 69.6686C5.55394 81.5995 5.59111 93.5307 5.62955 105.823C5.8082 106.639 5.8082 106.639 5.99045 107.47C6.14673 107.78 6.30318 108.089 6.46414 108.408C6.66516 108.703 6.86601 108.997 7.07316 109.3C7.28898 109.531 7.5048 109.761 7.7273 109.998C7.98787 110.19 8.24827 110.383 8.51678 110.581C9.23137 110.883 9.94595 111.185 10.6822 111.496C16.704 111.519 22.7261 111.542 28.9304 111.565C37.8515 111.622 37.8515 111.622 46.953 111.679C47.0721 112.102 47.1912 112.525 47.3139 112.96C47.3325 113.251 47.3511 113.542 47.3702 113.841C47.3424 114.22 47.3424 114.22 47.3139 114.607C47.1352 114.728 46.9566 114.849 46.7725 114.973C37.9351 115.002 37.9351 115.002 28.919 115.031C22.9605 115.012 17.0018 114.993 10.8626 114.973C9.79077 114.702 9.79077 114.702 8.69723 114.424C8.33254 114.266 7.96784 114.108 7.59196 113.944C7.06721 113.638 7.06721 113.638 6.53181 113.326C6.05163 112.93 6.05163 112.93 5.56188 112.526C5.14883 112.107 5.14883 112.107 4.72729 111.679C4.52627 111.434 4.32543 111.189 4.11827 110.936C3.962 110.698 3.80573 110.46 3.64458 110.215C3.5143 109.989 3.38401 109.762 3.24975 109.529C3.14184 109.272 3.03393 109.016 2.92278 108.751C2.7721 108.219 2.7721 108.219 2.61817 107.676C2.50106 107.121 2.50106 107.121 2.38142 106.555C2.32187 105.951 2.26232 105.347 2.20097 104.725C2.17859 90.9748 2.15622 77.2244 2.1333 63.0573C2.15568 49.2692 2.17805 35.4812 2.20097 21.2753C2.49872 20.3694 2.79646 19.4635 3.10323 18.5302C3.30046 18.1717 3.49769 17.813 3.70088 17.4435C3.92049 17.1379 4.1401 16.8321 4.36639 16.5171C4.5934 16.2604 4.82041 16.0038 5.05427 15.7394C5.30365 15.5128 5.55304 15.2864 5.81 15.0531C6.09277 14.8265 6.37572 14.6002 6.66715 14.3668C6.97987 14.1707 7.29241 13.9743 7.61452 13.7721C8.17284 13.5569 8.17284 13.5569 8.74234 13.3374C9.08484 13.2394 9.42716 13.1413 9.77994 13.0401C10.1372 12.9797 10.4945 12.9193 10.8626 12.8571Z" fill="#0B0E0F"/>
<path d="M60.0406 39.232C60.4278 39.217 60.8151 39.2018 61.2141 39.1863C61.6014 39.2013 61.9886 39.2165 62.3876 39.232C63.1026 39.3528 63.8175 39.4735 64.5541 39.5979C65.3325 39.9036 66.1106 40.2091 66.9124 40.5239C67.6833 40.8825 68.454 41.2409 69.2482 41.6102C69.6467 41.8932 70.0452 42.1762 70.4557 42.4678C70.7126 42.7282 70.9695 42.9885 71.2342 43.2567C71.4613 43.4868 71.6885 43.7169 71.9224 43.954C72.2073 44.3333 72.2073 44.3333 72.498 44.7202C72.7885 45.2578 72.7885 45.2578 73.0848 45.8065C73.2487 46.1724 73.4125 46.5384 73.5813 46.9155C73.6892 47.206 73.7972 47.4965 73.9084 47.7958C73.9792 48.0486 74.05 48.3014 74.1229 48.5619C74.1825 48.9845 74.2421 49.4071 74.3034 49.8425C74.6423 49.9632 74.9812 50.084 75.3304 50.2084C75.766 50.3291 76.2017 50.4498 76.6505 50.5742C77.0676 50.7592 77.4846 50.944 77.9143 51.1344C78.3314 51.3722 78.7484 51.6099 79.1781 51.8548C79.584 52.168 79.9898 52.4812 80.408 52.8039C80.7766 53.1548 81.1453 53.5057 81.5252 53.8672C81.8193 54.2219 82.1135 54.5764 82.4167 54.9419C82.7796 55.4966 82.7796 55.4966 83.15 56.0624C83.3512 56.4662 83.5521 56.8699 83.7594 57.2859C83.9157 57.667 84.0723 58.048 84.2333 58.4406C84.3413 58.7311 84.4492 59.0216 84.5604 59.3209C84.6312 59.5738 84.702 59.8266 84.7749 60.0871C84.8345 60.57 84.8941 61.053 84.9555 61.5506C84.9667 62.6881 84.9667 62.6881 84.978 63.8487C84.9706 64.5996 84.9632 65.3504 84.9555 66.1241C84.8959 66.5467 84.8363 66.9693 84.7749 67.4047C85.0728 67.5254 85.3707 67.6461 85.6776 67.7705C86.1021 68.0819 86.1021 68.0819 86.5352 68.3995C86.8481 68.6748 87.1608 68.9503 87.4831 69.234C87.7586 69.5359 88.0343 69.8377 88.3181 70.1487C88.5788 70.511 88.8395 70.8732 89.1079 71.2464C89.3611 71.7143 89.6144 72.1821 89.8753 72.6642C90.0986 73.1621 90.3221 73.6603 90.5523 74.1734C90.7236 74.6414 90.895 75.1091 91.0714 75.5912C91.1979 76.029 91.3245 76.4665 91.455 76.9175C91.5332 77.2495 91.6114 77.5816 91.6919 77.9237C91.7534 78.5122 91.7534 78.5122 91.8161 79.1128C91.8421 79.773 91.8683 80.4334 91.8952 81.1137C91.869 81.8418 91.843 82.5701 91.8161 83.3204C91.6206 84.3335 91.6206 84.3335 91.4211 85.3671C91.2535 85.9594 91.086 86.5518 90.9134 87.1621C90.7718 87.5695 90.6305 87.9771 90.4846 88.3969C90.3282 88.714 90.1717 89.0308 90.0107 89.3574C89.8059 89.644 89.601 89.9309 89.39 90.2263C89.1778 90.4828 88.9655 90.7395 88.7469 91.0038C88.5681 91.2528 88.3894 91.502 88.2052 91.7584C87.9371 92.1093 87.9371 92.1093 87.6636 92.4673C87.4849 92.6748 87.3061 92.8824 87.122 93.0963C86.8837 93.3112 86.6453 93.5264 86.3998 93.7479C86.0088 94.0271 85.6179 94.3064 85.2151 94.594C84.7719 94.8582 84.3288 95.1223 83.8722 95.3943C83.4216 95.5793 82.9711 95.7641 82.5069 95.9545C82.1233 96.0716 81.7398 96.1885 81.3446 96.309C81.0467 96.309 80.7488 96.309 80.4419 96.309C80.5015 96.4298 80.5611 96.5505 80.6224 96.6749C80.6112 97.056 80.6001 97.4371 80.5885 97.8296C80.5401 98.2938 80.4917 98.7579 80.4419 99.2361C80.3413 99.6398 80.2408 100.044 80.1371 100.46C79.9306 101.031 79.9306 101.031 79.7197 101.614C79.5484 101.969 79.3771 102.324 79.2007 102.689C79.0145 102.998 78.8282 103.308 78.6365 103.627C78.4651 103.857 78.2938 104.087 78.1174 104.324C77.8381 104.613 77.8381 104.613 77.5532 104.907C77.3373 105.092 77.1214 105.277 76.8987 105.467C76.638 105.645 76.3773 105.822 76.1089 106.005C75.5671 106.299 75.5671 106.299 75.0144 106.599C74.6606 106.765 74.3069 106.931 73.9424 107.102C73.5253 107.223 73.1083 107.344 72.6786 107.468C72.0754 107.531 72.0754 107.531 71.4599 107.594C71.0876 107.613 70.7152 107.632 70.3315 107.651C70.1528 107.591 69.974 107.531 69.7899 107.468C69.9052 107.774 70.0208 108.08 70.1398 108.394C70.2625 108.753 70.3855 109.111 70.512 109.481C70.5716 109.903 70.6312 110.326 70.6926 110.761C70.7074 111.252 70.7224 111.742 70.7377 112.248C70.7229 112.723 70.7079 113.198 70.6926 113.688C70.5139 113.99 70.3351 114.292 70.151 114.603C69.8531 114.724 69.5552 114.844 69.2482 114.969C68.8908 114.969 68.5333 114.969 68.165 114.969C67.9267 114.667 67.6884 114.365 67.4428 114.054C67.3794 113.503 67.3163 112.952 67.2511 112.385C67.1951 111.789 67.1393 111.193 67.0817 110.578C67.0036 110.205 66.9254 109.831 66.8449 109.446C66.6939 109.011 66.6939 109.011 66.5401 108.566C66.38 108.29 66.2198 108.015 66.0548 107.731C65.9171 107.524 65.7793 107.316 65.6374 107.102C65.6374 106.982 65.6374 106.861 65.6374 106.737C65.2799 106.676 64.9224 106.616 64.5541 106.554C64.1967 106.972 63.8392 107.391 63.4709 107.823C63.1134 108.309 62.7559 108.796 62.3876 109.298C62.0301 109.781 61.6727 110.264 61.3044 110.761C60.69 111.452 60.69 111.452 60.0631 112.156C59.6387 112.601 59.2142 113.047 58.7768 113.505C58.3001 113.868 57.8235 114.23 57.3324 114.603C57.1053 114.72 56.8782 114.837 56.6442 114.957C56.3947 115.022 56.1452 115.086 55.8881 115.152C55.4021 115.157 55.4021 115.157 54.9063 115.163C54.575 115.099 54.2435 115.035 53.9021 114.969C53.6042 114.81 53.3063 114.652 52.9994 114.489C52.7611 114.285 52.5228 114.081 52.2772 113.871C52.0985 113.449 51.9198 113.026 51.7356 112.591C51.7356 112.047 51.7356 111.504 51.7356 110.944C51.8734 110.359 52.0111 109.774 52.153 109.172C52.3727 108.429 52.5925 107.685 52.8189 106.92C53.1577 105.954 53.4966 104.988 53.8458 103.992C54.1623 103.147 54.4788 102.302 54.8048 101.431C54.9836 101.069 55.1623 100.707 55.3465 100.334C55.0486 100.213 54.7507 100.092 54.4437 99.9678C53.9709 99.6585 53.4979 99.3491 53.0106 99.0303C52.4708 98.6755 51.9308 98.3208 51.3745 97.9555C50.6708 97.5367 50.6708 97.5367 49.9527 97.1094C49.5879 96.9056 49.2228 96.702 48.8469 96.492C48.6682 96.4316 48.4894 96.3712 48.3053 96.309C47.4116 96.3129 46.5179 96.3165 45.5972 96.3204C44.6439 96.3167 43.6906 96.3129 42.7085 96.309C42.0531 96.1883 41.3977 96.0676 40.7225 95.9432C40.1417 95.745 40.1417 95.745 39.549 95.5429C39.1617 95.3731 38.7744 95.2034 38.3754 95.0285C38.0328 94.8285 37.6903 94.6286 37.3373 94.4226C37.0244 94.1999 36.7117 93.9773 36.3895 93.7479C36.114 93.5291 35.8383 93.3103 35.5545 93.0847C35.2938 92.8206 35.0332 92.5564 34.7646 92.2844C34.4779 91.8881 34.1912 91.4921 33.8958 91.0839C33.5215 90.5009 33.5216 90.5009 33.1397 89.9062C32.9834 89.4988 32.9834 89.4988 32.8238 89.0829C32.6896 88.932 32.5556 88.7811 32.4175 88.6256C32.0898 88.6898 31.7622 88.7538 31.4245 88.8199C30.9777 88.937 30.5309 89.0539 30.0705 89.1744C29.4785 89.1971 28.8863 89.2196 28.2762 89.243C27.6768 89.2203 27.0773 89.1978 26.4596 89.1744C26.0278 89.114 25.5957 89.0537 25.1507 88.9915C24.7484 88.8707 24.3464 88.75 23.932 88.6256C23.4406 88.3993 22.949 88.1728 22.4425 87.9396C21.9807 87.6831 21.5191 87.4264 21.0433 87.1621C20.7119 86.9433 20.3806 86.7245 20.0392 86.4989C19.7747 86.2951 19.5104 86.0915 19.2379 85.8815C19.022 85.7154 18.8061 85.5495 18.5834 85.3784C18.3823 85.1823 18.1812 84.986 17.9741 84.7839C17.7396 84.4895 17.5049 84.1954 17.2631 83.892C17.0212 83.5223 16.7791 83.1524 16.5298 82.7715C16.2765 82.3149 16.0233 81.8585 15.7625 81.3882C15.539 80.8787 15.3156 80.3694 15.0854 79.8445C14.9365 79.3012 14.7875 78.7579 14.6341 78.1981C14.5447 77.6547 14.4553 77.1114 14.3633 76.5516C14.3373 76.0573 14.3111 75.563 14.2842 75.0537C14.3104 74.5821 14.3364 74.1105 14.3633 73.6246C14.4638 72.9398 14.4638 72.9398 14.5664 72.2412C14.6781 71.7921 14.7899 71.3431 14.9049 70.8805C15.0724 70.4089 15.24 69.9373 15.4126 69.4514C15.6025 69.0174 15.7924 68.5835 15.9881 68.1364C16.1557 67.8157 16.3232 67.495 16.4958 67.1646C16.7807 66.74 16.7807 66.74 17.0714 66.307C17.3433 65.9863 17.615 65.6656 17.895 65.3352C18.1595 65.0522 18.4238 64.7692 18.6963 64.4776C18.9942 64.1758 19.2921 63.8739 19.599 63.5629C20.0458 63.2007 20.0458 63.2007 20.5017 62.8312C20.6209 62.8312 20.74 62.8312 20.8628 62.8312C20.848 62.2538 20.833 61.6766 20.8177 61.0819C20.8325 60.3913 20.8475 59.7009 20.8628 58.9894C20.9634 58.499 21.0639 58.0083 21.1676 57.5031C21.3053 57.088 21.4431 56.6729 21.585 56.2454C21.7191 55.8983 21.8531 55.5511 21.9912 55.1935C22.1551 54.8764 22.3189 54.5596 22.4877 54.233C22.7186 53.886 22.9495 53.5388 23.1873 53.1811C23.433 52.8641 23.6787 52.5472 23.932 52.2207C24.122 51.9981 24.3119 51.7754 24.5076 51.546C24.7347 51.3461 24.9618 51.1461 25.1958 50.9401C25.5757 50.6873 25.9554 50.4345 26.3468 50.174C26.9388 49.8288 26.9388 49.8288 27.5429 49.4766C28.0791 49.2351 28.6153 48.9936 29.1678 48.7449C29.8529 48.6731 30.5381 48.6014 31.244 48.5275C31.9292 48.3577 32.6143 48.188 33.3202 48.0131C33.7783 47.2943 33.7783 47.2943 34.2455 46.5609C34.4764 46.0139 34.7074 45.4668 34.9451 44.9031C35.3212 44.473 35.6973 44.0429 36.0847 43.5997C36.6825 43.0677 36.6825 43.0677 37.2922 42.5249C37.6349 42.2909 37.9773 42.057 38.3303 41.816C38.7026 41.6274 39.075 41.4386 39.4587 41.2443C39.9501 41.0142 40.4418 40.7841 40.9482 40.547C41.4694 40.3545 41.9908 40.1621 42.5279 39.9638C43.2821 39.8335 43.282 39.8335 44.0513 39.7007C44.5018 39.6669 44.9524 39.6328 45.4166 39.5979C45.7145 39.579 46.0124 39.5602 46.3193 39.5408C46.6172 39.5597 46.9151 39.5785 47.222 39.5979C47.6839 39.6696 48.1455 39.7413 48.6212 39.8152C49.3586 39.9793 49.3586 39.9793 50.1107 40.1467C50.565 40.2938 51.0194 40.4411 51.4874 40.5927C51.8672 40.7473 52.2469 40.9021 52.6383 41.0614C52.9958 41.3029 53.3533 41.5444 53.7216 41.7932C54.1684 41.6121 54.1684 41.6121 54.6243 41.4273C55.1047 41.1159 55.1047 41.1159 55.5947 40.7983C55.9298 40.5834 56.2649 40.3682 56.6103 40.1467C57.0273 39.9656 57.4444 39.7845 57.8741 39.5979C58.2091 39.5262 58.5442 39.4545 58.8896 39.3806C59.2695 39.3315 59.6492 39.2825 60.0406 39.232Z" fill="#0C0E0F"/>
<path d="M60.1575 42.2361C60.6341 42.2361 61.1107 42.2361 61.6018 42.2361C62.2999 42.4344 62.2999 42.4344 63.0121 42.6368C63.5 42.8068 63.9878 42.9767 64.4904 43.1518C64.833 43.2954 65.1755 43.4388 65.5285 43.5868C65.8414 43.7454 66.154 43.9042 66.4763 44.0676C67.0349 44.3679 67.0349 44.3679 67.6047 44.6742C67.9473 44.8971 68.2898 45.12 68.6428 45.3496C68.9946 45.6952 68.9946 45.6952 69.3537 46.0478C69.5361 46.3009 69.7186 46.554 69.9065 46.8148C70.0779 47.1245 70.2492 47.4342 70.4256 47.7535C70.5521 48.0481 70.6787 48.3427 70.8092 48.6463C70.8688 49.0089 70.9284 49.3716 70.9897 49.7452C70.9897 50.2287 70.9897 50.7122 70.9897 51.2104C70.7217 52.0263 70.7217 52.0263 70.4481 52.8588C70.0869 53.3272 69.7258 53.7956 69.3537 54.2782C68.7336 55.0261 68.7336 55.0261 68.1011 55.7891C67.7921 56.1934 67.483 56.5976 67.1645 57.014C66.7345 57.5862 66.7345 57.5862 66.2958 58.1701C66.0091 58.5477 65.7224 58.9256 65.427 59.3148C65.1179 59.7228 64.8089 60.1307 64.4904 60.551C64.1069 61.0609 63.7233 61.571 63.3281 62.0964C62.7417 62.8726 62.7417 62.8726 62.1434 63.6646C61.8119 64.0915 61.4806 64.5182 61.1392 64.958C60.8152 65.3774 60.4913 65.7966 60.1575 66.2287C59.774 66.7688 59.3904 67.3091 58.9952 67.8656C58.6639 68.2924 58.3324 68.7193 57.991 69.159C57.7527 69.0986 57.5144 69.0382 57.2689 68.9759C57.012 68.7266 56.7551 68.4774 56.4904 68.2204C56.2707 67.9257 56.051 67.6312 55.8246 67.3276C55.8841 66.9045 55.9437 66.4814 56.0051 66.0455C56.0051 65.562 56.0051 65.0785 56.0051 64.5803C55.9119 64.0854 55.819 63.5906 55.7231 63.0807C55.5052 62.2818 55.5052 62.2818 55.283 61.4668C55.1004 61.0551 54.9181 60.6433 54.7301 60.2192C54.4954 59.8452 54.2609 59.4712 54.0192 59.0858C53.7065 58.7005 53.3936 58.3153 53.0714 57.9183C52.7287 57.5783 52.3862 57.2384 52.0333 56.888C51.7094 56.6501 51.3853 56.412 51.0515 56.1668C50.7202 55.9818 50.3888 55.7967 50.0474 55.606C49.7011 55.4397 49.3548 55.2736 48.9981 55.1023C48.6294 54.9663 48.2608 54.8304 47.8809 54.6902C47.4565 54.5807 47.032 54.4712 46.5946 54.3584C46.1849 54.2866 45.7753 54.2148 45.3534 54.1408C45.0183 54.1067 44.6832 54.0728 44.3378 54.0379C44.0771 54.0717 43.8166 54.1058 43.548 54.1408C43.3097 54.5034 43.0714 54.8661 42.8258 55.2397C42.8854 55.6023 42.945 55.965 43.0064 56.3386C43.1851 56.5199 43.3638 56.7012 43.548 56.888C44.2033 57.058 44.8587 57.228 45.5339 57.4031C46.2488 57.5957 46.9638 57.7884 47.7004 57.9869C48.095 58.1758 48.4899 58.3646 48.8964 58.5593C49.1571 58.7331 49.4176 58.9067 49.6863 59.0858C49.9842 59.3276 50.2821 59.5693 50.589 59.8184C50.9073 60.2433 50.9073 60.2433 51.232 60.677C51.437 60.9981 51.6417 61.3192 51.8527 61.6499C52.0595 62.0692 52.0595 62.0692 52.2701 62.497C52.3707 62.7615 52.4713 63.0257 52.5749 63.2983C52.6494 63.5287 52.7238 63.7591 52.8006 63.9964C52.8453 64.2495 52.8899 64.5027 52.936 64.7635C52.9472 65.1223 52.9583 65.4812 52.9699 65.851C52.9587 66.2173 52.9475 66.5838 52.936 66.9613C52.8876 67.2596 52.8392 67.5581 52.7894 67.8656C52.7782 68.1111 52.767 68.3567 52.7554 68.6096C53.0533 68.9118 53.3512 69.214 53.6581 69.5253C53.8778 69.771 54.0975 70.0164 54.3239 70.2693C54.5213 70.5074 54.7186 70.7453 54.9219 70.9905C55.041 71.2323 55.1602 71.4741 55.283 71.7231C55.2234 72.0253 55.1638 72.3275 55.1024 72.6389C54.8827 72.9184 54.663 73.198 54.4366 73.486C54.1201 73.8713 53.8036 74.2565 53.4776 74.6535C53.0679 75.2164 52.6583 75.7792 52.2364 76.359C51.8119 76.9446 51.3875 77.5301 50.95 78.1334C50.5964 78.5867 50.2425 79.04 49.878 79.507C49.5765 79.8998 49.2748 80.2927 48.9641 80.6975C48.722 81.0526 48.4801 81.4075 48.2308 81.7735C48.0557 82.0832 47.8807 82.3929 47.7004 82.7121C47.6148 82.9652 47.529 83.2183 47.4408 83.4791C47.4074 83.7095 47.3738 83.9399 47.3393 84.1773C47.3393 84.6608 47.3393 85.1443 47.3393 85.6425C47.4361 85.8691 47.5328 86.0958 47.6327 86.3293C47.7742 86.5256 47.9156 86.7222 48.0614 86.9245C48.5976 87.2872 48.5976 87.2872 49.1447 87.6571C49.6549 87.7328 50.1649 87.8082 50.6904 87.8861C51.4315 87.9313 52.1725 87.9767 52.936 88.0234C54.7065 88.0348 54.7065 88.0348 56.5128 88.0463C57.5368 88.0388 58.5608 88.0313 59.6159 88.0234C59.4371 88.6278 59.2584 89.2322 59.0742 89.8549C58.8173 90.5613 58.5604 91.2677 58.2958 91.9956C58.0165 92.7397 57.7372 93.4839 57.4494 94.2505C57.2559 94.802 57.0622 95.3536 56.8627 95.9218C56.6987 96.2769 56.535 96.632 56.3662 96.9978C56.0683 96.8769 55.7704 96.756 55.4635 96.6315C54.9311 96.2877 54.3985 95.9439 53.8498 95.5897C53.2505 95.2082 52.6509 94.8267 52.0333 94.4337C51.1992 94.0106 50.3651 93.5875 49.5057 93.1516C48.4631 93.1064 47.4205 93.061 46.3463 93.0143C45.3037 92.9992 44.2611 92.984 43.1869 92.9685C41.9358 92.6965 41.9358 92.6965 40.6594 92.419C40.3169 92.2641 39.9742 92.1093 39.6213 91.9498C39.3084 91.7419 38.9957 91.5342 38.6735 91.3201C38.2098 90.9123 38.2098 90.9123 37.7368 90.496C37.4501 90.1635 37.1635 89.8311 36.8681 89.4886C36.6038 89.0656 36.3393 88.6425 36.0669 88.2066C35.7486 87.572 35.7486 87.572 35.4238 86.9245C35.3232 86.5808 35.2227 86.237 35.119 85.8828C35.0409 85.6222 34.9627 85.3615 34.8822 85.093C34.5843 84.9117 34.2864 84.7304 33.9795 84.5436C33.2646 84.7249 33.2646 84.7249 32.5352 84.9099C32.014 85.0685 31.4926 85.2271 30.9555 85.3907C30.1288 85.6061 30.1288 85.6061 29.2855 85.8256C28.6991 85.8654 28.6991 85.8654 28.1008 85.9059C27.7767 85.8793 27.4529 85.8529 27.119 85.8256C26.728 85.7634 26.728 85.7634 26.3292 85.6996C26.0537 85.6203 25.778 85.541 25.4942 85.4593C24.8686 85.2553 24.8686 85.2553 24.2304 85.0473C23.8134 84.881 23.3964 84.7148 22.9667 84.5436C22.6726 84.3698 22.3783 84.196 22.0752 84.017C21.8333 83.8282 21.5912 83.6392 21.3418 83.4447C21.1259 83.2484 20.91 83.0518 20.6874 82.8495C20.4863 82.6229 20.2851 82.3962 20.0781 82.1627C19.7542 81.7434 19.7542 81.7434 19.4236 81.3156C19.1219 80.8282 19.1219 80.8282 18.8143 80.3312C18.6468 79.9383 18.4792 79.5455 18.3066 79.1407C18.1763 78.7478 18.0459 78.355 17.9116 77.9502C17.7887 77.531 17.7887 77.531 17.6634 77.1032C17.6262 76.7782 17.5888 76.4533 17.5505 76.1187C17.5579 75.5559 17.5653 74.9931 17.5731 74.4132C17.6253 73.8277 17.6773 73.2422 17.7311 72.6389C17.8278 72.2197 17.9246 71.8002 18.0244 71.3682C18.166 71.0019 18.3074 70.6354 18.4532 70.2579C18.658 69.8689 18.8629 69.4797 19.0739 69.0788C19.3922 68.5746 19.3922 68.5746 19.717 68.0602C20.0149 67.6975 20.3128 67.3349 20.6197 66.9613C21.0031 66.6477 21.3868 66.3342 21.782 66.0111C22.1728 65.7202 22.5639 65.4294 22.9667 65.1298C23.3241 64.9484 23.6816 64.7671 24.0499 64.5803C24.1095 64.5199 24.1691 64.4594 24.2304 64.3972C24.2044 64.1856 24.1783 63.9741 24.1514 63.7561C24.118 63.4237 24.0844 63.0913 24.0499 62.7488C24.0387 62.2389 24.0275 61.7289 24.016 61.2034C24.0272 60.686 24.0383 60.1684 24.0499 59.6353C24.0947 59.3029 24.1393 58.9704 24.1853 58.628C24.2971 58.2201 24.2971 58.2201 24.411 57.8038C24.5151 57.5243 24.6195 57.2446 24.7269 56.9567C24.8611 56.6923 24.995 56.428 25.1331 56.1554C25.3844 55.7814 25.3844 55.7814 25.6408 55.3999C25.8307 55.1657 26.0207 54.9315 26.2164 54.6902C26.4025 54.4712 26.5886 54.2522 26.7805 54.0263C27.0114 53.8223 27.2424 53.6183 27.4801 53.4082C27.8302 53.208 28.1801 53.0078 28.5408 52.8016C28.9056 52.6392 29.2707 52.4767 29.6466 52.3093C29.9295 52.2262 30.2126 52.143 30.5041 52.0575C30.7574 52.0197 31.0105 51.9818 31.2714 51.943C31.748 51.943 32.2247 51.943 32.7157 51.943C32.6989 52.2943 32.6989 52.2943 32.6818 52.6527C32.693 53.0229 32.7042 53.3932 32.7157 53.7745C32.7903 54.3109 32.8647 54.8474 32.9414 55.3999C33.0977 56.2272 33.0977 56.2272 33.2573 57.0712C33.3579 57.4565 33.4584 57.8417 33.5621 58.2388C33.6998 58.5787 33.8376 58.9186 33.9795 59.269C34.2066 59.6505 34.4337 60.032 34.6677 60.425C34.9172 60.7688 35.1667 61.1126 35.4238 61.4668C35.7199 61.8181 35.7199 61.8181 36.0217 62.1765C36.2414 62.3653 36.4612 62.5543 36.6876 62.7488C37.179 63.0492 37.179 63.0492 37.6805 63.3554C38.1719 63.5992 38.1719 63.5992 38.6735 63.8477C39.0905 63.9686 39.5076 64.0895 39.9372 64.214C40.3543 64.214 40.7713 64.214 41.201 64.214C41.4989 63.9723 41.7968 63.7305 42.1037 63.4814C42.1633 63.1792 42.2228 62.877 42.2842 62.5657C42.1651 62.3239 42.0459 62.0822 41.9232 61.8331C41.5211 61.5952 41.1189 61.3571 40.7045 61.1118C40.0566 60.7437 40.0566 60.7437 39.3956 60.3679C39.0382 60.0657 38.6807 59.7635 38.3124 59.4521C38.0965 59.1347 37.8805 58.8175 37.6579 58.4906C37.4568 58.1432 37.2557 57.7955 37.0486 57.4375C36.8363 56.9955 36.8363 56.9955 36.6199 56.5446C36.5231 56.2954 36.4263 56.0461 36.3265 55.7891C36.2669 55.4869 36.2073 55.1847 36.1459 54.8734C36.1236 54.3408 36.1012 53.8082 36.0782 53.2595C36.1118 52.3359 36.1118 52.3359 36.1459 51.3936C36.3415 50.6117 36.3415 50.6117 36.541 49.8139C36.7085 49.3681 36.876 48.9223 37.0486 48.4632C37.2553 48.0099 37.2553 48.0099 37.466 47.5474C37.7063 47.1848 37.7063 47.1848 37.9513 46.8148C38.156 46.5692 38.361 46.3238 38.572 46.0709C38.8437 45.8328 39.1156 45.5949 39.3956 45.3496C39.7755 45.0928 40.1551 44.8359 40.5465 44.5712C41.0008 44.3445 41.4552 44.1179 41.9232 43.8844C42.4705 43.7372 43.0179 43.5897 43.5819 43.4379C44.1069 43.3436 44.6319 43.2491 45.1728 43.1518C45.5043 43.0952 45.8356 43.0385 46.177 42.98C46.663 42.9745 46.663 42.9745 47.1587 42.9687C47.6614 43.033 48.1642 43.0971 48.6821 43.1632C49.4472 43.339 49.4472 43.339 50.2279 43.5181C50.8255 43.7788 50.8255 43.7788 51.4353 44.0447C51.7518 44.2335 52.0683 44.4225 52.3943 44.617C52.7518 44.9192 53.1093 45.2214 53.4776 45.5328C53.7625 45.8784 53.7625 45.8784 54.0531 46.2309C54.3044 46.6106 54.3044 46.6106 54.5608 46.998C54.6688 47.217 54.7767 47.4361 54.8879 47.6619C54.9941 48.0586 54.9941 48.0586 55.1024 48.4632C55.1322 48.8937 55.162 49.3243 55.1927 49.7681C55.2225 50.1837 55.2523 50.5992 55.283 51.0273C55.4617 51.3899 55.6404 51.7525 55.8246 52.1262C56.0033 52.3075 56.182 52.4888 56.3662 52.6756C56.7236 52.6756 57.0811 52.6756 57.4494 52.6756C57.8962 52.2223 57.8962 52.2223 58.3521 51.7599C58.4117 51.5785 58.4713 51.3972 58.5326 51.2104C58.5214 50.8251 58.5103 50.4399 58.4987 50.0428C58.4261 49.3516 58.4261 49.3516 58.3521 48.6463C58.2479 48.2346 58.1436 47.8229 58.0362 47.3987C57.902 47.0247 57.7681 46.6507 57.6299 46.2654C57.4698 45.9593 57.3097 45.6535 57.1447 45.3383C57.0069 45.1002 56.8692 44.8623 56.7273 44.617C56.6677 44.3753 56.6081 44.1335 56.5467 43.8844C56.8036 43.6993 57.0605 43.5143 57.3252 43.3236C57.6641 43.146 58.0029 42.9685 58.3521 42.7855C58.6574 42.6722 58.9627 42.5588 59.2774 42.4421C59.5678 42.3742 59.8581 42.306 60.1575 42.2361Z" fill="#FBF8F2"/>
<path d="M95.3467 44.6228C104.337 44.6228 113.328 44.6228 122.591 44.6228C122.855 48.1262 122.589 51.6297 122.861 55.2394C122.597 58.7502 122.863 62.2612 122.591 65.8784C120.507 66.3393 118.735 66.3859 116.546 66.4235C114.358 66.4613 114.111 66.4235 111.765 66.4235C111.051 66.6033 109.427 66.24 108.698 66.4235C108.441 66.6071 107.824 66.7906 107.559 66.9797C107.23 67.2441 107.23 67.2441 106.894 67.5135C106.715 67.5734 106.627 67.8151 106.443 67.8768C106.324 68.1166 106.114 68.1748 105.992 68.4219C105.813 68.6017 105.634 68.7816 105.45 68.9669C105.331 68.9669 105.122 69.2394 104.999 69.2394C104.88 69.4792 104.851 69.4465 104.729 69.6936C104.411 69.9802 104.411 69.9802 104.086 70.2727C103.822 70.5013 103.558 70.7298 103.285 70.9653C102.991 71.2612 102.697 71.5573 102.394 71.8624C102.153 72.1058 101.911 72.3494 101.662 72.6003C101.602 72.6003 101.542 72.6003 101.481 72.6003C101.466 71.555 101.451 70.5095 101.436 69.4323C101.391 68.3795 101.347 67.3266 101.301 66.2418C101.003 66.1818 100.705 66.1219 100.399 66.0601C97.8979 65.9702 97.8979 65.9702 95.3467 65.8784C95.2426 62.3675 95.1384 58.8566 95.031 55.2394C95.1351 51.7358 95.2394 48.2324 95.3467 44.6228Z" fill="white"/>
<path d="M73.6233 54.9065C74.0423 54.6975 74.0676 54.6819 74.4486 54.7115C74.8296 54.741 75.0033 54.7333 75.342 54.9065C75.6807 55.0797 75.7074 55.1086 75.8847 55.5494C76.062 55.9903 75.9462 56.4274 75.8847 56.927C75.6105 57.8192 75.6105 57.8192 75.3308 58.7293C75.0956 59.4075 74.8606 60.0857 74.6183 60.7844C74.3982 61.311 74.178 61.8376 73.9511 62.3802C73.6937 63.0053 73.4363 63.6304 73.171 64.2744C72.8128 65.3087 72.4546 66.3428 72.0856 67.4084C71.7274 68.4352 71.3692 69.4618 71.0001 70.5196C70.7315 71.1561 70.4628 71.7925 70.186 72.4483C69.9771 72.9029 69.7681 73.3575 69.5528 73.8259C69.3998 74.1821 69.2469 74.5381 69.0893 74.9051C69.0034 75.1551 68.9176 75.405 68.8292 75.6628C68.8889 75.9052 68.9486 76.1477 69.0101 76.3975C69.0698 76.4581 69.1295 76.5187 69.191 76.5812C71.094 76.5812 72.997 76.5812 74.9575 76.5812C76.8754 76.5812 78.7932 76.5812 80.7693 76.5812C80.9484 76.6418 81.1275 76.7024 81.3121 76.7649C81.2524 77.0073 81.1927 77.2498 81.1311 77.4996C80.9074 77.8747 80.6834 78.2497 80.4527 78.6362C80.1394 79.1098 79.8259 79.5833 79.5029 80.0712C79.1409 80.5599 78.7791 81.0485 78.4063 81.552C77.7848 82.3648 77.7848 82.3648 77.1511 83.1938C76.6735 83.8227 76.1959 84.4515 75.7038 85.0995C75.2262 85.7435 74.7486 86.3877 74.2565 87.0511C73.8536 87.6459 73.4506 88.2407 73.0354 88.8534C72.6623 89.4104 72.2891 89.9673 71.9047 90.5411C71.5278 91.0563 71.151 91.5716 70.7628 92.1024C70.2533 92.7843 70.2533 92.7843 69.7337 93.48C69.4875 93.821 69.2413 94.1619 68.9875 94.5133C68.7561 94.8391 68.5247 95.165 68.2864 95.5006C68.0066 95.8984 67.7267 96.2961 67.4383 96.7059C67.1212 97.1568 66.8041 97.6076 66.4773 98.0721C66.0931 98.6138 65.7086 99.1557 65.3126 99.7139C64.9209 100.263 64.5291 100.813 64.1255 101.378C63.7859 101.852 63.4463 102.326 63.0965 102.813C62.6208 103.467 62.6208 103.467 62.1355 104.134C61.837 104.532 61.5384 104.929 61.2309 105.339C60.7831 105.924 60.7831 105.924 60.3263 106.522C59.8283 107.169 59.8283 107.169 59.3201 107.83C58.8331 108.455 58.8331 108.455 58.3363 109.093C58.0452 109.464 57.7543 109.836 57.4544 110.218C57.085 110.661 57.085 110.661 56.7081 111.114C56.2604 111.477 56.2604 111.477 55.8036 111.848C55.5648 111.788 55.3259 111.727 55.0799 111.665C55.1396 111.18 55.1993 110.695 55.2608 110.195C55.6078 109.206 55.9548 108.218 56.3123 107.199C56.6817 106.187 57.0511 105.176 57.4318 104.134C57.79 103.134 57.79 103.134 58.1554 102.113C58.5136 101.265 58.8718 100.416 59.2409 99.5416C59.5244 98.7119 59.808 97.8822 60.1002 97.0273C60.4137 96.0992 60.7271 95.171 61.05 94.2148C61.3559 93.3623 61.6618 92.51 61.9772 91.6318C62.2682 90.8475 62.5591 90.0634 62.8591 89.2553C63.2788 88.2153 63.2788 88.2153 63.7072 87.1544C63.9049 86.6355 64.1027 86.1164 64.3064 85.5817C64.2467 85.3392 64.187 85.0967 64.1255 84.8469C63.827 84.7863 63.5285 84.7257 63.2209 84.6632C62.2657 84.7239 61.3105 84.7845 60.3263 84.8469C58.0651 84.864 58.0651 84.864 55.7583 84.8815C54.3405 84.8701 52.9225 84.8587 51.4617 84.8469C51.2229 84.7257 50.9841 84.6045 50.738 84.4796C50.7977 84.1765 50.8574 83.8734 50.9189 83.5611C51.0868 83.2619 51.2547 82.9625 51.4277 82.6541C51.6777 82.2867 51.9277 81.9192 52.1853 81.5406C52.6946 80.9326 52.6946 80.9326 53.2143 80.3122C53.5912 79.8689 53.968 79.4257 54.3563 78.9691C54.7183 78.4803 55.0801 77.9917 55.453 77.4882C55.8075 77.0069 56.1619 76.5259 56.5272 76.0301C56.8594 75.6286 57.1913 75.2269 57.5334 74.8132C57.8582 74.4267 58.1827 74.0405 58.5172 73.6422C58.8494 73.2141 59.1814 72.7861 59.5235 72.3451C59.8482 71.9244 60.1727 71.504 60.5073 71.0707C60.8132 70.6956 61.1191 70.3205 61.4344 69.934C61.7255 69.5817 62.0164 69.2294 62.3164 68.8665C62.585 68.5369 62.8537 68.2072 63.1305 67.8676C63.3991 67.5305 63.6678 67.1933 63.9446 66.8459C64.2393 66.4595 64.5342 66.0732 64.8379 65.675C65.2911 65.0727 65.2911 65.0727 65.7537 64.4581C66.041 64.0755 66.3283 63.6928 66.6242 63.2987C66.9339 62.8933 67.2437 62.4879 67.5628 62.0702C67.9583 61.5739 68.3537 61.0776 68.7613 60.5662C69.142 60.0926 69.5224 59.6191 69.9146 59.1312C70.1759 58.7979 70.4371 58.4645 70.7061 58.121C70.9225 57.8482 71.1391 57.5754 71.3619 57.2944C71.6921 56.9079 71.6921 56.9079 72.0291 56.5138C72.2269 56.2864 72.4246 56.0591 72.6283 55.8249C72.9268 55.4612 73.2043 55.1156 73.6233 54.9065Z" fill="white"/>
<path d="M79.3199 56.9541C79.762 57.3156 79.762 57.3156 80.2131 57.6845C80.3955 57.9952 80.3955 57.9952 80.5815 58.3122C80.6958 58.587 80.81 58.862 80.9277 59.1452C81.0603 59.4691 81.193 59.793 81.3297 60.1266C81.4328 60.586 81.536 61.0456 81.6423 61.5188C81.6645 62.321 81.6865 63.1231 81.7093 63.9495C81.6761 65.0963 81.6761 65.0963 81.6423 66.2662C81.5244 66.7482 81.4065 67.2302 81.285 67.7269C81.285 68.1487 81.285 68.5705 81.285 69.005C81.5798 69.246 81.8746 69.4871 82.1783 69.7354C82.5928 69.9275 82.5927 69.9275 83.0158 70.1234C83.329 70.2967 83.6421 70.4698 83.9648 70.6483C84.2742 70.9344 84.5838 71.2207 84.9027 71.5156C85.1827 71.8321 85.4628 72.1483 85.7513 72.4742C85.9428 72.7266 86.1345 72.9789 86.3319 73.2389C86.4941 73.5289 86.6562 73.8188 86.8232 74.1175C87.0112 74.5431 87.1991 74.9686 87.3927 75.407C87.5585 75.8854 87.7243 76.3636 87.8951 76.8564C88.0057 77.3346 88.1161 77.813 88.2301 78.3058C88.2964 78.7915 88.3628 79.2773 88.4311 79.7778C88.4532 80.2673 88.4752 80.757 88.4981 81.2613C88.4648 81.9731 88.4648 81.9731 88.4311 82.6992C88.361 83.1362 88.291 83.5729 88.2188 84.023C88.112 84.4296 88.0052 84.8364 87.8951 85.2555C87.7624 85.6283 87.6298 86.0012 87.4932 86.3854C87.3309 86.7356 87.1689 87.0858 87.0019 87.4466C86.8139 87.7855 86.626 88.1243 86.4323 88.4736C86.2076 88.7975 85.9828 89.1215 85.7513 89.4551C85.4603 89.779 85.1691 90.1029 84.8691 90.4365C84.5708 90.7151 84.2723 90.9939 83.9648 91.281C83.7327 91.4542 83.5005 91.6275 83.2613 91.8059C83.0219 91.9339 82.7823 92.0621 82.5356 92.1939C82.0382 92.3973 82.0382 92.3973 81.5307 92.6047C81.2137 92.7101 80.8968 92.8156 80.5704 92.9243C80.2167 92.9845 79.863 93.0448 79.4985 93.1068C79.2405 93.1218 78.9826 93.137 78.7169 93.1525C78.3853 93.1375 78.0538 93.1224 77.712 93.1068C77.2036 93.0314 76.6951 92.9562 76.1711 92.8786C75.7363 92.7733 75.3016 92.6677 74.8536 92.5591C74.8536 92.3181 74.8536 92.077 74.8536 91.8287C75.1705 91.3505 75.4874 90.8721 75.8138 90.3793C76.3996 89.5604 76.3996 89.5604 76.9974 88.7247C77.2922 88.3292 77.5869 87.9339 77.8907 87.5265C78.1854 87.1385 78.4802 86.7507 78.7839 86.351C79.123 85.8878 79.4619 85.4246 79.8112 84.9473C80.1795 84.4464 80.5481 83.9456 80.9277 83.4296C81.3588 82.8647 81.7899 82.2997 82.234 81.7178C82.6283 81.1982 83.0226 80.6785 83.4288 80.143C83.6795 79.7889 83.93 79.4351 84.1881 79.0703C84.3503 78.8218 84.5124 78.5733 84.6794 78.3171C84.7973 78.0761 84.9152 77.8351 85.0367 77.5867C85.0699 77.1461 85.0699 77.1461 85.1037 76.6966C85.0815 76.3878 85.0596 76.0791 85.0367 75.7608C84.8009 75.3993 84.5651 75.0378 84.3221 74.6653C84.0273 74.4243 83.7325 74.1833 83.4288 73.9349C83.1341 73.8144 82.8393 73.6939 82.5356 73.5698C81.0433 73.5321 79.551 73.4943 78.0136 73.4556C76.5581 73.433 75.1026 73.4104 73.603 73.3872C73.662 73.0256 73.7209 72.6641 73.7817 72.2916C74.1465 71.2711 74.5113 70.2505 74.8872 69.1989C75.2888 68.1107 75.6904 67.0223 76.1041 65.901C76.4579 64.9972 76.8116 64.0934 77.176 63.1621C77.4524 62.488 77.7288 61.8139 78.0136 61.1193C78.2678 60.4679 78.522 59.8164 78.7839 59.1452C78.9056 58.7008 79.0271 58.2563 79.1523 57.7986C79.2077 57.5199 79.2629 57.2411 79.3199 56.9541Z" fill="#FAF7F2"/>
<path d="M29.3547 68.755C29.6171 68.7589 29.8792 68.7625 30.1495 68.7664C30.4268 68.8234 30.7042 68.8803 30.9898 68.9389C31.2296 69.2424 31.4694 69.5459 31.7165 69.8585C31.8964 70.2227 32.0762 70.5869 32.2615 70.9621C32.2615 71.0835 32.2615 71.2048 32.2615 71.3299C32.5014 71.4513 32.7412 71.5727 32.9883 71.6978C33.2975 71.8855 33.2975 71.8855 33.6129 72.077C33.8263 72.1947 34.04 72.3122 34.26 72.4334C34.5598 72.4941 34.8595 72.5548 35.1684 72.6174C36.287 72.6459 36.287 72.6459 37.4281 72.6748C38.2411 72.7165 39.0543 72.7582 39.892 72.8013C40.3678 72.9037 40.8438 73.0062 41.3341 73.1117C41.6975 73.2521 42.061 73.3924 42.4355 73.537C42.7614 73.6773 43.0875 73.8176 43.4234 73.9622C43.7568 74.186 44.0904 74.4099 44.4339 74.6405C44.921 75.111 45.4082 75.5813 45.91 76.0659C46.5283 76.726 46.5283 76.726 47.1591 77.3993C47.219 77.5207 47.279 77.6421 47.3407 77.7672C47.3407 78.192 47.3407 78.6169 47.3407 79.0546C47.071 79.1457 47.071 79.1457 46.7957 79.2386C46.7358 79.4206 46.6758 79.6027 46.614 79.7903C46.2543 79.9724 46.2543 79.9724 45.8873 80.1582C45.5276 80.1582 45.1679 80.1582 44.7973 80.1582C44.4975 79.9154 44.1977 79.6726 43.8889 79.4225C43.6978 79.1532 43.5066 78.8838 43.3097 78.6062C43.0811 78.3294 42.8526 78.0524 42.6171 77.7672C42.2069 77.5055 42.2069 77.5055 41.7883 77.2384C41.2993 77.0449 41.2993 77.0449 40.8004 76.8476C40.4258 76.7414 40.051 76.6351 39.6649 76.5257C38.968 76.4119 38.968 76.4119 38.2569 76.2958C37.5936 76.273 36.9305 76.2502 36.2472 76.2268C35.5913 76.1889 34.9357 76.1509 34.26 76.1119C33.8254 75.9866 33.3907 75.8616 32.9428 75.7326C32.5982 75.5542 32.2534 75.376 31.8982 75.1923C31.5759 74.9646 31.2536 74.7371 30.9217 74.5026C30.6444 74.2447 30.367 73.9867 30.0814 73.7209C29.8454 73.4553 29.6092 73.1899 29.366 72.9162C29.0907 72.4952 29.0907 72.4952 28.8097 72.0656C28.6785 71.7507 28.5473 71.4359 28.4122 71.1114C28.3635 70.8193 28.3148 70.5273 28.2646 70.2264C28.5045 69.8622 28.7443 69.498 28.9914 69.1228C29.1113 69.0015 29.2312 68.8801 29.3547 68.755Z" fill="#0C0F0F"/>
<path d="M72.846 95.0088C73.1465 95.0889 73.4469 95.1691 73.7565 95.2516C74.117 95.4157 74.4775 95.5799 74.849 95.749C75.3147 95.8101 75.7803 95.8712 76.2601 95.9341C76.6356 96.0562 77.0112 96.1784 77.3981 96.3042C77.4395 96.6286 77.4808 96.953 77.5234 97.2873C77.422 97.6957 77.3206 98.1041 77.2161 98.5249C77.0921 98.9639 76.9682 99.4029 76.8406 99.8552C76.664 100.271 76.4875 100.687 76.3056 101.116C75.9508 101.585 75.9508 101.585 75.5886 102.064C75.2226 102.419 75.2226 102.419 74.849 102.781C74.4884 103.026 74.1279 103.27 73.7565 103.522C73.5536 103.628 73.351 103.735 73.1419 103.845C72.8641 103.922 72.586 103.998 72.2998 104.077C71.5844 104.117 71.5844 104.117 70.8544 104.158C70.3701 104.131 69.8855 104.104 69.3864 104.077C69.0672 103.962 68.748 103.848 68.4192 103.73C68.0867 103.535 68.0867 103.535 67.7477 103.337C67.5674 103.214 67.3871 103.092 67.2014 102.966C67.2615 102.722 67.3216 102.478 67.3835 102.226C67.6351 101.883 67.8868 101.539 68.1461 101.185C68.4953 100.735 68.8445 100.285 69.2043 99.8204C69.6401 99.2517 70.0756 98.683 70.5245 98.0971C70.93 97.5665 71.3356 97.0359 71.7535 96.4893C72.1141 96.0007 72.4746 95.5122 72.846 95.0088Z" fill="#FAF7F1"/>
<circle cx="39" cy="22" r="4" fill="#00DC0F"/>
<circle cx="28" cy="22" r="4" fill="#FFBB00"/>
<circle cx="17" cy="22" r="4" fill="#FF402A"/>
</g>
</g>
<defs>
<filter id="filter0_d_112_119" x="-1.8667" y="12.8" width="131.733" height="110.363" filterUnits="userSpaceOnUse" color-interpolation-filters="sRGB">
<feFlood flood-opacity="0" result="BackgroundImageFix"/>
<feColorMatrix in="SourceAlpha" type="matrix" values="0 0 0 0 0 0 0 0 0 0 0 0 0 0 0 0 0 0 127 0" result="hardAlpha"/>
<feOffset dy="4"/>
<feGaussianBlur stdDeviation="2"/>
<feComposite in2="hardAlpha" operator="out"/>
<feColorMatrix type="matrix" values="0 0 0 0 0 0 0 0 0 0 0 0 0 0 0 0 0 0 0.25 0"/>
<feBlend mode="normal" in2="BackgroundImageFix" result="effect1_dropShadow_112_119"/>
<feBlend mode="normal" in="SourceGraphic" in2="effect1_dropShadow_112_119" result="shape"/>
</filter>
<clipPath id="clip0_112_119">
<rect width="128" height="128" fill="white"/>
</clipPath>
</defs>
</svg>
